name pl07_filtered_grf.mot
datacolumns 37
datarows 9
range 0.002500 0.006500
endheader
time	1_ground_force_vx	1_ground_force_vy	1_ground_force_vz	1_ground_force_px	1_ground_force_py	1_ground_force_pz	1_ground_torque_x	1_ground_torque_y	1_ground_torque_z	2_ground_force_vx	2_ground_force_vy	2_ground_force_vz	2_ground_force_px	2_ground_force_py	2_ground_force_pz	2_ground_torque_x	2_ground_torque_y	2_ground_torque_z	3_ground_force_vx	3_ground_force_vy	3_ground_force_vz	3_ground_force_px	3_ground_force_py	3_ground_force_pz	3_ground_torque_x	3_ground_torque_y	3_ground_torque_z	4_ground_force_vx	4_ground_force_vy	4_ground_force_vz	4_ground_force_px	4_ground_force_py	4_ground_force_pz	4_ground_torque_x	4_ground_torque_y	4_ground_torque_z
            0.002500	            0.000000	            0.000000	            0.000000	            0.137251	            0.000000	            0.190652	            0.000000	            0.000000	           -0.000000	           -0.000000	            0.000000	            0.000000	           -0.203925	            0.000000	            0.212187	            0.000000	           -0.000000	            0.000000	          -73.783998	          563.650106	          103.476307	            0.412907	            1.261712	            1.874964	            3.226958	          -24.651352	           -4.525557	           93.217796	          614.421181	           53.420856	           -0.354824	            1.255212	            1.901759	            3.577724	           23.581648	            2.050307
            0.003000	            0.000000	            0.000000	            0.000000	            0.137251	            0.000000	            0.190652	            0.000000	            0.000000	           -0.000000	           -0.000000	            0.000000	            0.000000	           -0.203925	            0.000000	            0.212187	            0.000000	           -0.000000	            0.000000	          -74.041771	          564.285460	          103.393724	            0.412907	            1.261712	            1.874964	            3.238407	          -24.680473	           -4.522190	           93.506694	          614.972790	           53.150524	           -0.354824	            1.255212	            1.901759	            3.588936	           23.603638	            2.040002
            0.003500	            0.000000	            0.000000	            0.000000	            0.137251	            0.000000	            0.190652	            0.000000	            0.000000	           -0.000000	           -0.000000	            0.000000	            0.000000	           -0.203925	            0.000000	            0.212187	            0.000000	           -0.000000	            0.000000	          -74.303177	          564.939199	          103.309791	            0.412902	            1.261710	            1.874971	            3.250002	          -24.710293	           -4.518743	           93.797569	          615.540240	           52.877966	           -0.354827	            1.255213	            1.901768	            3.600260	           23.626466	            2.029631
            0.004000	            0.000000	            0.000000	            0.000000	            0.137251	            0.000000	            0.190652	            0.000000	            0.000000	           -0.000000	           -0.000000	            0.000000	            0.000000	           -0.203925	            0.000000	            0.212187	            0.000000	           -0.000000	            0.000000	          -74.567994	          565.611308	          103.224449	            0.412896	            1.261707	            1.874978	            3.261733	          -24.740816	           -4.515216	           94.090094	          616.123519	           52.603479	           -0.354831	            1.255214	            1.901776	            3.611683	           23.650132	            2.019204
            0.004500	            0.000000	            0.000000	            0.000000	            0.137251	            0.000000	            0.190652	            0.000000	            0.000000	           -0.000000	           -0.000000	            0.000000	            0.000000	           -0.203925	            0.000000	            0.212187	            0.000000	           -0.000000	            0.000000	          -74.836005	          566.301763	          103.137639	            0.412891	            1.261705	            1.874985	            3.273592	          -24.772042	           -4.511605	           94.383946	          616.722613	           52.327352	           -0.354834	            1.255214	            1.901784	            3.623193	           23.674632	            2.008733
            0.005000	            0.000000	            0.000000	            0.000000	            0.137251	            0.000000	            0.190652	            0.000000	            0.000000	           -0.000000	           -0.000000	            0.000000	            0.000000	           -0.203925	            0.000000	            0.212187	            0.000000	           -0.000000	            0.000000	          -75.106995	          567.010531	          103.049304	            0.412886	            1.261702	            1.874992	            3.285569	          -24.803975	           -4.507910	           94.678810	          617.337497	           52.049870	           -0.354838	            1.255215	            1.901792	            3.634777	           23.699963	            1.998226
            0.005500	            0.000000	            0.000000	            0.000000	            0.137251	            0.000000	            0.190652	            0.000000	            0.000000	           -0.000000	           -0.000000	            0.000000	            0.000000	           -0.203925	            0.000000	            0.212187	            0.000000	           -0.000000	            0.000000	          -75.381234	          567.736817	          102.963205	            0.412881	            1.261700	            1.874998	            3.297677	          -24.836584	           -4.504295	           94.974663	          617.968250	           51.769561	           -0.354842	            1.255216	            1.901800	            3.646435	           23.726125	            1.987628
            0.006000	            0.000000	            0.000000	            0.000000	            0.137251	            0.000000	            0.190652	            0.000000	            0.000000	           -0.000000	           -0.000000	            0.000000	            0.000000	           -0.203925	            0.000000	            0.212187	            0.000000	           -0.000000	            0.000000	          -75.658024	          568.481332	          102.875491	            0.412876	            1.261698	            1.875005	            3.309885	          -24.869906	           -4.500594	           95.270920	          618.614734	           51.488443	           -0.354845	            1.255216	            1.901808	            3.658142	           23.753109	            1.977015
            0.006500	            0.000000	            0.000000	            0.000000	            0.137251	            0.000000	            0.190652	            0.000000	            0.000000	           -0.000000	           -0.000000	            0.000000	            0.000000	           -0.203925	            0.000000	            0.212187	            0.000000	           -0.000000	            0.000000	          -75.937167	          569.244022	          102.786111	            0.412872	            1.261695	            1.875011	            3.322187	          -24.903943	           -4.496805	           95.567296	          619.276914	           51.206781	           -0.354849	            1.255217	            1.901816	            3.669888	           23.780908	            1.966396
